<svg width="282" height="24" viewBox="0 0 282 24" fill="none" xmlns="http://www.w3.org/2000/svg">
<path d="M1.496 9.272L14.296 2.872L15.736 5.72L5.784 10.712L15.736 15.672L14.296 18.552L1.496 12.12C0.92 11.8427 0.621333 11.3733 0.6 10.712C0.6 10.0293 0.898667 9.54933 1.496 9.272ZM18.9125 23V0.599998H30.1125C31.3498 0.599998 32.4592 1.09067 33.4405 2.072C34.4218 3.05333 34.9125 4.16267 34.9125 5.4V8.6C34.9125 9.79467 34.4752 10.8613 33.6005 11.8C34.4752 12.7387 34.9125 13.8053 34.9125 15V18.2C34.9125 19.4373 34.4218 20.5467 33.4405 21.528C32.4805 22.5093 31.3712 23 30.1125 23H18.9125ZM22.1125 19.8H30.1125C30.4752 19.8 30.8272 19.6293 31.1685 19.288C31.5312 18.9253 31.7125 18.5627 31.7125 18.2V15C31.7125 14.6373 31.5312 14.2853 31.1685 13.944C30.8058 13.5813 30.4538 13.4 30.1125 13.4H22.1125V19.8ZM22.1125 10.2H30.1125C30.4752 10.2 30.8272 10.0293 31.1685 9.688C31.5312 9.32533 31.7125 8.96267 31.7125 8.6V5.4C31.7125 5.03733 31.5312 4.68533 31.1685 4.344C30.8058 3.98133 30.4538 3.8 30.1125 3.8H22.1125V10.2ZM38.1 23V0.599998H54.1V3.8H41.3V10.2H50.9V13.4H41.3V19.8H54.1V23H38.1ZM57.2875 3.8V0.599998H73.2875V3.8H66.8875V23H63.6875V3.8H57.2875ZM76.475 23V0.599998H79.675V17.72L84.475 10.52V8.6H87.675V10.52L92.475 17.72V0.599998H95.675V23H92.731L86.075 13.88L79.419 23H76.475ZM98.8813 23V0.599998H114.881V3.8H102.081V10.2H111.681V13.4H102.081V19.8H114.881V23H98.8813ZM118.069 23V0.599998H134.069V3.8H121.269V10.2H130.869V13.4H121.269V19.8H134.069V23H118.069ZM137.256 23V0.599998H140.264L150.056 16.984V0.599998H153.256V23H150.28L140.456 6.616V23H137.256ZM170.85 23V0.599998H182.05C183.287 0.599998 184.397 1.09067 185.378 2.072C186.359 3.05333 186.85 4.16267 186.85 5.4V18.2C186.85 19.4373 186.359 20.5467 185.378 21.528C184.418 22.5093 183.309 23 182.05 23H170.85ZM174.05 19.8H182.05C182.413 19.8 182.765 19.6293 183.106 19.288C183.469 18.9253 183.65 18.5627 183.65 18.2V5.4C183.65 5.03733 183.469 4.68533 183.106 4.344C182.765 3.98133 182.413 3.8 182.05 3.8H174.05V19.8ZM190.038 23V0.599998H206.038V3.8H193.238V10.2H202.838V13.4H193.238V19.8H206.038V23H190.038ZM209.225 11.8V0.599998H212.425V11.416L216.617 19.8H217.833L222.025 11.416V0.599998H225.225V11.8C225.225 12.0133 225.172 12.248 225.065 12.504L220.265 22.104C220.201 22.2747 219.988 22.4667 219.625 22.68C219.284 22.8933 219.017 23 218.825 23H215.625C215.433 23 215.166 22.8933 214.825 22.68C214.484 22.4667 214.281 22.2747 214.217 22.104L209.417 12.504C209.289 12.2053 209.225 11.9707 209.225 11.8ZM228.413 18.232V17.24H231.613V18.232C231.613 18.6587 231.773 19.032 232.093 19.352C232.413 19.672 232.786 19.832 233.213 19.832H239.613C240.061 19.832 240.434 19.672 240.733 19.352C241.053 19.032 241.213 18.6587 241.213 18.232V16.664C241.213 16.216 240.935 15.832 240.381 15.512L231.036 11L230.973 10.968C230.141 10.4987 229.501 9.89067 229.053 9.144C228.626 8.39733 228.413 7.68267 228.413 7V5.4C228.413 4.07733 228.882 2.94667 229.821 2.008C230.759 1.06933 231.89 0.599998 233.213 0.599998H239.613C240.935 0.599998 242.066 1.06933 243.005 2.008C243.943 2.94667 244.413 4.07733 244.413 5.4V6.392H241.213V5.4C241.213 4.97333 241.053 4.6 240.733 4.28C240.413 3.96 240.039 3.8 239.613 3.8H233.213C232.786 3.8 232.413 3.96 232.093 4.28C231.773 4.6 231.613 4.97333 231.613 5.4V6.968C231.613 7.416 231.901 7.8 232.477 8.12L241.789 12.632L241.885 12.664C242.717 13.1333 243.346 13.7413 243.773 14.488C244.199 15.2133 244.413 15.928 244.413 16.632V18.232C244.413 19.5547 243.943 20.6853 243.005 21.624C242.066 22.5627 240.935 23.032 239.613 23.032H233.213C231.89 23.032 230.759 22.5627 229.821 21.624C228.882 20.6853 228.413 19.5547 228.413 18.232ZM247.6 23V18.2C247.6 17.752 247.749 17.3787 248.048 17.08L260.4 4.728V0.599998H263.6V5.4C263.6 5.82667 263.44 6.2 263.12 6.52L250.8 18.872V23H247.6ZM266.788 15.672L276.74 10.712L266.788 5.72L268.228 2.872L281.028 9.272C281.625 9.54933 281.924 10.0293 281.924 10.712C281.924 11.3733 281.625 11.8427 281.028 12.12L268.228 18.552L266.788 15.672Z" fill="white"/>
</svg>
